<svg xmlns="http://www.w3.org/2000/svg" viewBox="0 0 452.5 151.9"><defs><style>.cls-1{fill:#747474}.cls-2{fill:#1f1f1f}.cls-3{fill:#2b2b2b}</style></defs><g id="Layer_2" data-name="Layer 2"><g id="Layer_1-2" data-name="Layer 1"><path class="cls-1" d="M116 38.6c1.9-11.8 0-19.9-6.4-27.1S89.9 0 73.6 0H26.4a6.8 6.8 0 0 0-6.7 5.7L.1 130.4a4.1 4.1 0 0 0 4 4.7h29.1l-2 12.7a3.5 3.5 0 0 0 3.5 4.1h24.6a5.8 5.8 0 0 0 5.8-5l.2-1.2 4.7-29.4.3-1.6a5.8 5.8 0 0 1 5.8-5h3.7c23.8 0 42.4-9.6 47.9-37.6 2.3-11.7 1.1-21.5-4.9-28.3a23.6 23.6 0 0 0-6.8-5.2"/><path class="cls-2" d="M116 38.6c1.9-11.8 0-19.9-6.4-27.1S89.9 0 73.6 0H26.4a6.8 6.8 0 0 0-6.7 5.7L.1 130.4a4.1 4.1 0 0 0 4 4.7h29.1l7.3-46.5-.2 1.5a6.7 6.7 0 0 1 6.7-5.7h13.8c27.2 0 48.5-11.1 54.7-43 .2-1 .4-1.9.5-2.8"/><path class="cls-3" d="M48.4 38.8a6.2 6.2 0 0 1 3.3-4.5 7 7 0 0 1 2.5-.5h37a79 79 0 0 1 12.3.9l3.1.5 2.9.8 1.4.4a34 34 0 0 1 5.1 2.2c1.9-11.8 0-19.9-6.4-27.1S89.9 0 73.6 0H26.4a6.8 6.8 0 0 0-6.7 5.7L.1 130.4a4.1 4.1 0 0 0 4 4.7h29.1l7.3-46.5zm270.4 39.3a2.5 2.5 0 0 1 2.4-2.1H344c18.8 0 31.9 14.8 29 33.7s-21 33.8-39.7 33.8h-23.2a1.5 1.5 0 0 1-1.4-1.7zm9.5 50.5h4c10.4 0 20.3-5.7 22.4-18.9s-5-18.8-16.3-18.8h-2.9a1.4 1.4 0 0 0-1.4 1.2zm-39-35.7l-1.5 9.2h18.1a1.4 1.4 0 0 1 1.4 1.7l-1.7 11.1a2.5 2.5 0 0 1-2.4 2.1h-15.6a2.4 2.4 0 0 0-2.4 2.1l-1.6 9.5h19.2a1.5 1.5 0 0 1 1.4 1.7l-1.7 11.1a2.6 2.6 0 0 1-2.5 2.1h-34.6a1.5 1.5 0 0 1-1.4-1.7l10.1-63.7a2.4 2.4 0 0 1 2.4-2.1h34.6a1.4 1.4 0 0 1 1.4 1.7l-1.7 11.1a2.5 2.5 0 0 1-2.4 2.1h-16.7a2.4 2.4 0 0 0-2.4 2zm99 50.6h-13.8a1.5 1.5 0 0 1-1.4-1.7l10.1-63.7a2.5 2.5 0 0 1 2.4-2.1h13.8a1.5 1.5 0 0 1 1.4 1.7l-10.1 63.7a2.5 2.5 0 0 1-2.4 2.1zm-129.1 0h-18a1.9 1.9 0 0 1-1.8-1.1l-11.9-24.9h-.2l-3.8 24.3a2 2 0 0 1-2 1.7h-14.2a1.5 1.5 0 0 1-1.4-1.7L216 77.7a2 2 0 0 1 2-1.7h24.5c13.4 0 22.5 6.4 20.2 20.8-1.5 9.3-7.9 17.3-17.8 19l15.5 25.5a1.4 1.4 0 0 1-1.2 2.2zm-30.1-37.2h1.7c5.7 0 12.3-1.1 13.5-8.5s-2.6-8.3-8.7-8.4h-2.5a1.5 1.5 0 0 0-1.5 1.3zm196.4 37.2h-13.8a1.5 1.5 0 0 1-1.4-1.7l8.1-50.9h-12.8a1.5 1.5 0 0 1-1.5-1.7l1.8-11.1a2.5 2.5 0 0 1 2.4-2.1h42.8a1.5 1.5 0 0 1 1.4 1.7l-1.7 11.1a2.6 2.6 0 0 1-2.5 2.1h-12.4l-8 50.5a2.5 2.5 0 0 1-2.4 2.1zM206.8 95.2a1.5 1.5 0 0 1-2.6.8 16.7 16.7 0 0 0-12.2-4.7c-10.7 0-19.2 8.2-20.9 18.7s4.5 18.3 15.4 18.3a23 23 0 0 0 13.2-4.6 1.5 1.5 0 0 1 2.4 1.5l-2.5 15.4a2.5 2.5 0 0 1-1.7 2c-5.4 1.5-9.5 2.7-14.5 2.7-29.1 0-33.7-24.9-32.2-35.4 4.2-29.7 28.2-36.4 43-35.6a42.9 42.9 0 0 1 13.1 2.4 2.9 2.9 0 0 1 1.9 3.4z"/><path class="cls-1" d="M294.2 8.4H279a2.1 2.1 0 0 0-2.1 1.8l-6.1 39a1.2 1.2 0 0 0 1.2 1.5h7.8a1.6 1.6 0 0 0 1.5-1.3l1.7-11a2.1 2.1 0 0 1 2.1-1.8h4.8c10 0 15.8-4.9 17.3-14.5.7-4.2 0-7.5-1.9-9.8s-6-3.9-11.1-3.9zm1.7 14.3c-.8 5.4-5 5.4-9 5.4h-2.3l1.6-10.2a1.3 1.3 0 0 1 1.3-1h1c2.8 0 5.4 0 6.7 1.5s1 2.4.7 4.3z"/><path class="cls-3" d="M185.8 8.4h-15.2a2.2 2.2 0 0 0-2.1 1.8l-6.1 39a1.2 1.2 0 0 0 1.2 1.5h7.3a2.2 2.2 0 0 0 2.1-1.8l1.6-10.5a2.1 2.1 0 0 1 2.1-1.8h4.8c10 0 15.8-4.9 17.3-14.5.7-4.2 0-7.5-1.9-9.8s-6-3.9-11.1-3.9zm1.8 14.3c-.9 5.4-5 5.4-9.1 5.4h-2.3l1.6-10.2a1.3 1.3 0 0 1 1.3-1h1c2.8 0 5.4 0 6.7 1.5a5.3 5.3 0 0 1 .8 4.3zm43.6-.2h-7.3a1.3 1.3 0 0 0-1.2 1.1l-.3 2-.5-.7c-1.6-2.3-5.1-3.1-8.6-3.1-8.1 0-14.9 6.1-16.3 14.6a13.8 13.8 0 0 0 2.7 11.2c2.3 2.6 5.4 3.7 9.2 3.7a14.1 14.1 0 0 0 10.1-4.1l-.4 2a1.3 1.3 0 0 0 1.3 1.5h6.6a2 2 0 0 0 2-1.8l4-24.9a1.3 1.3 0 0 0-1.3-1.5zm-10.1 14.2a8.1 8.1 0 0 1-8.2 6.9 6.2 6.2 0 0 1-4.9-2 6.1 6.1 0 0 1-1.2-5.1 8.2 8.2 0 0 1 8.2-7 6 6 0 0 1 4.8 2 6.1 6.1 0 0 1 1.3 5.2z"/><path class="cls-1" d="M339.6 22.5h-7.3a1.3 1.3 0 0 0-1.2 1.1l-.3 2-.6-.7c-1.5-2.3-5-3.1-8.5-3.1-8.1 0-15 6.1-16.3 14.6a13.8 13.8 0 0 0 2.7 11.2c2.2 2.6 5.4 3.7 9.2 3.7a14.1 14.1 0 0 0 10.1-4.1l-.4 2a1.3 1.3 0 0 0 1.3 1.5h6.5a2.1 2.1 0 0 0 2.1-1.8l4-24.9a1.3 1.3 0 0 0-1.3-1.5zm-10.1 14.2a8.1 8.1 0 0 1-8.2 6.9 5.7 5.7 0 0 1-6.1-7.1 8.2 8.2 0 0 1 8.2-7 6.1 6.1 0 0 1 4.8 2 6.4 6.4 0 0 1 1.3 5.2z"/><path class="cls-3" d="M270 22.5h-7.3a2.1 2.1 0 0 0-1.8.9l-10.1 14.9-4.3-14.3a2 2 0 0 0-2-1.5h-7.2a1.4 1.4 0 0 0-1.2 1.7l8.1 23.6-7.6 10.7a1.3 1.3 0 0 0 1 2h7.4a2.1 2.1 0 0 0 1.7-.9L271 24.5a1.3 1.3 0 0 0-1-2z"/><path class="cls-1" d="M348.2 9.5l-6.3 39.7a1.3 1.3 0 0 0 1.3 1.5h6.3a2.2 2.2 0 0 0 2.1-1.8l6.1-39a1.3 1.3 0 0 0-1.2-1.5h-7.1a1.3 1.3 0 0 0-1.2 1.1z"/></g></g></svg>