<svg xmlns="http://www.w3.org/2000/svg" viewBox="0 0 383.2 404.7"><defs><style>.cls-1{fill:#333}.cls-2{fill:#fff}</style></defs><g id="Layer_2" data-name="Layer 2"><g id="Layer_1-2" data-name="Layer 1"><circle class="cls-1" cx="191.6" cy="212.4" r="134"/><path class="cls-1" d="M333.9 142.5l30.6-12.7a190.3 190.3 0 0 0-29.9-44.6l-23.4 23.4a152.2 152.2 0 0 1 22.7 33.9zm16.2 59.8h33.1a191.1 191.1 0 0 0-10.4-52.7l-30.6 12.7a155.1 155.1 0 0 1 7.9 40zM319.5 70.1a193.4 193.4 0 0 0-44.6-29.9l-12.7 30.6a159.4 159.4 0 0 1 33.9 22.7zm22.6 193.6l30.6 12.7a184 184 0 0 0 10.4-52.7H350a147.9 147.9 0 0 1-7.9 40z"/><path class="cls-1" d="M191.8 371.7c-87.5 0-158.7-71.2-158.7-158.7s70-157.4 156.4-158.6v20.3l47.9-37.3L189.5 0v21.3C84.8 22.5 0 108 0 213s86 191.7 191.8 191.7c76 0 141.7-44.4 172.8-108.6L334 283.4a158.9 158.9 0 0 1-142.2 88.3z"/><path class="cls-2" d="M117.7 195.3c2.2-3.2 3.4-6.2 3.4-9.2a10.3 10.3 0 0 0-2.9-7.4 9.9 9.9 0 0 0-7.5-3c-5.6 0-10.9 4-15.8 11.9l-15.8-9.4a49.5 49.5 0 0 1 13.6-14.6c4.9-3.3 11.2-4.9 18.9-4.9a30.6 30.6 0 0 1 20.2 7.3c5.8 4.9 8.6 11.5 8.6 19.8a26.8 26.8 0 0 1-3.5 13.1c-2.3 4.2-6.6 9.5-12.8 16l-16 16.6h35v17.7H80.6v-14.7l26-26.6a116.5 116.5 0 0 0 11.1-12.6zm72.4 15.8v-15.5h19v15.5h10v17.1h-10v21.2h-19v-21.2h-35.7v-15.1l31.7-52.4h21.6l-30 50.3h12.4zm62.2 1.5v36.8h-19v-94.1h19v33.5c5.8-5.8 12.3-8.7 19.3-8.7a24.2 24.2 0 0 1 18.1 7.6c4.9 5.1 7.4 11.8 7.4 20.3v41.5h-19v-37.3c0-10.5-3.8-15.7-11.5-15.7a13.8 13.8 0 0 0-9.9 4.1c-2.9 2.6-4.4 6.7-4.4 12z"/></g></g></svg>