<svg xmlns="http://www.w3.org/2000/svg" viewBox="0 0 59.2 57"><defs><style>.cls-1{fill:#fff}</style></defs><g id="Layer_2" data-name="Layer 2"><g id="Capa_1" data-name="Capa 1"><path d="M46.2 31a13 13 0 1 0 13 13 13 13 0 0 0-13-13zm0 24a11 11 0 1 1 11-11 11 11 0 0 1-11 11zM0 31.2l25.1 25.2 6.2-6.1L6.1 25.1 0 31.2z"/><path d="M29.4 44a16 16 0 0 1 16-16 15 15 0 0 1 6.7 1.5l4.3-4.3V11.1L45.3 0h-14L7.5 23.7l22 22a9.7 9.7 0 0 1-.1-1.7zm13-35a4 4 0 1 1-3.9 3.9A4 4 0 0 1 42.4 9zm8.5 30l-5.6 8-3.9-3.2a1 1 0 0 0-1.3 1.5l4.8 3.9a.9.9 0 0 0 .6.3h.2a1.5 1.5 0 0 0 .7-.5l6.2-8.9a1 1 0 0 0-1.7-1.1z"/><path class="cls-1" d="M25.3 22.8c.1-.1.2 0 .3.1l1.3 1.3 2.3-2.3a4.4 4.4 0 0 1 3.3-1.6 3.9 3.9 0 0 1 3.2 1.4 3.7 3.7 0 0 1 1.2 2.2 4 4 0 0 1-.2 2.4h-.6c-.2-.2-.2-.3-.2-.4A4.3 4.3 0 0 0 36 24a3 3 0 0 0-.9-1.5 3 3 0 0 0-2.6-1 3.8 3.8 0 0 0-2.6 1.3l-2.3 2.3 3.8 3.7-.4.3h-.4l-3.5-3.5-2.3 2.3a2.8 2.8 0 0 1-1.4.9 2.2 2.2 0 0 1-1.6 0l.7.7 6.1 6-.3.3-.3.2-.4-.2-7.5-7.4.5-.5a3.7 3.7 0 0 0 1.8.2 2.3 2.3 0 0 0 1.5-.7l2.5-2.5-1.6-1.6.3-.2c0-.3.1-.4.2-.3z"/></g></g></svg>