<?xml version="1.0" encoding="utf-8"?>
<!-- Generator: Adobe Illustrator 27.0.1, SVG Export Plug-In . SVG Version: 6.00 Build 0)  -->
<svg version="1.1" id="Layer_1" xmlns="http://www.w3.org/2000/svg" xmlns:xlink="http://www.w3.org/1999/xlink" x="0px" y="0px"
	 viewBox="0 0 167.7 101.8" style="enable-background:new 0 0 167.7 101.8;" xml:space="preserve">
<style type="text/css">
	.st0{fill:#FFFFFF;}
</style>
<g id="Layer_2_00000130643832087755378460000007601600364313403561_">
	<g id="Layer_1-2">
		<path class="st0" d="M151.8,76.5h0.1V3.8c0-2.1-1.7-3.8-3.8-3.8c0,0,0,0,0,0H19.7C17.6,0.1,16,1.7,16,3.8v72.7h-0.1L0,92.3V98
			c0,2.1,1.7,3.8,3.8,3.8c0,0,0,0,0,0h160.1c2.1,0,3.8-1.7,3.8-3.8v0v-5.7L151.8,76.5z M42.9,84.3h-21l3.5-3.1H31l2.3-2.3h5.2
			l-1.3,2.3h7L42.9,84.3z M67.2,92l1.4-3.8h30.6l1.3,3.8H67.2z M144.2,68.2H23.8V7.7h120.5L144.2,68.2z"/>
	</g>
</g>
</svg>
