<?xml version="1.0" encoding="utf-8"?>
<!-- Generator: Adobe Illustrator 27.0.1, SVG Export Plug-In . SVG Version: 6.00 Build 0)  -->
<svg version="1.1" id="Layer_1" xmlns="http://www.w3.org/2000/svg" xmlns:xlink="http://www.w3.org/1999/xlink" x="0px" y="0px"
	 viewBox="0 0 169.7 103" style="enable-background:new 0 0 169.7 103;" xml:space="preserve">
<style type="text/css">
	.st0{fill:#FFFFFF;}
</style>
<g id="Layer_2_00000141442094491192170330000009151624989264598162_">
	<g id="Layer_1-2">
		<path class="st0" d="M153.7,77.4h0.1V3.8c0-2.1-1.7-3.8-3.8-3.8c0,0,0,0,0,0H20c-2.1,0-3.8,1.7-3.8,3.8v73.6h-0.1L0,93.5v5.7
			c0,2.1,1.7,3.8,3.8,3.8c0,0,0,0,0,0h162.1c2.1,0,3.8-1.7,3.8-3.8v0v-5.7L153.7,77.4z M24.1,7.8H146V69H24.1V7.8z M68.1,93.1
			l1.4-3.8h30.9l1.3,3.8H68.1z M18.7,85.4l5.4-5.7H146l5,5.7H18.7z"/>
	</g>
</g>
</svg>
